<svg xmlns="http://www.w3.org/2000/svg" xmlns:xlink="http://www.w3.org/1999/xlink" width="1080" zoomAndPan="magnify" viewBox="0 0 810 809.999993" height="1080" preserveAspectRatio="xMidYMid meet" version="1.0"><defs><clipPath id="171ee30b29"><path d="M 35.46875 241 L 290 241 L 290 583 L 35.46875 583 Z M 35.46875 241 " clip-rule="nonzero"/></clipPath><clipPath id="435426ae03"><path d="M 161 331 L 774.21875 331 L 774.21875 348 L 161 348 Z M 161 331 " clip-rule="nonzero"/></clipPath><clipPath id="5041eeff51"><path d="M 662 222.550781 L 747 222.550781 L 747 333 L 662 333 Z M 662 222.550781 " clip-rule="nonzero"/></clipPath><clipPath id="56ea296325"><path d="M 35.46875 572 L 724 572 L 724 587.800781 L 35.46875 587.800781 Z M 35.46875 572 " clip-rule="nonzero"/></clipPath></defs><path fill="#13017c" d="M 565.414062 462.800781 L 565.609375 462 Z M 495.660156 516.730469 C 471.621094 516.730469 487.300781 463.519531 491.46875 451.5625 C 495.925781 438.808594 508.140625 412.371094 518.644531 404.53125 C 530.722656 395.511719 544.046875 395.570312 558.5 397.679688 C 561.707031 398.132812 575.554688 401.089844 578.683594 402.574219 L 573.621094 427.804688 L 565.414062 444.339844 C 561.050781 452.25 556.285156 459.910156 551.125 467.324219 L 535.15625 487.902344 L 520.289062 504.136719 C 515.078125 509.355469 503.011719 516.777344 495.660156 516.777344 Z M 565.414062 462.800781 C 565.414062 465.1875 562.042969 481.226562 561.300781 484.9375 C 559.867188 492.265625 558.582031 499.441406 557.0625 506.96875 C 554.097656 521.636719 558.082031 539.273438 575.335938 539.339844 C 592.125 539.339844 607.28125 528.835938 617.902344 519.851562 C 621.664062 516.660156 622.855469 515.210938 626.375 511.734375 C 627.535156 510.574219 631.785156 505.550781 632.234375 504.300781 C 633.027344 500.492188 633.621094 496.65625 634.019531 492.785156 L 625.378906 501.855469 C 625.320312 501.914062 625.265625 501.980469 625.21875 502.050781 C 625.03125 502.246094 624.835938 502.425781 624.628906 502.59375 C 619.847656 506.734375 615.886719 511.222656 609.957031 515.246094 C 605.011719 518.632812 594.636719 525.996094 588.316406 522.296875 C 581.691406 518.390625 585.78125 502.945312 586.902344 497.308594 C 587.703125 493.191406 588.722656 488.890625 589.601562 484.554688 C 593.851562 463.03125 598.863281 441.648438 603.066406 420.453125 L 611.171875 381.644531 C 607.039062 381.644531 602.652344 380.949219 600.105469 380.878906 C 583.894531 380.054688 566.988281 379.277344 550.925781 381.886719 C 542.390625 383.1875 534.152344 385.523438 526.207031 388.902344 C 519.890625 391.667969 513.949219 395.082031 508.386719 399.152344 L 501.808594 404.371094 C 494.363281 410.195312 487.609375 416.734375 481.542969 423.988281 C 468.113281 440.699219 459.984375 456.144531 455.027344 477.246094 C 451.347656 492.996094 450.5 515.511719 461.117188 529.695312 C 473.136719 545.8125 491.640625 539.65625 506.136719 531.015625 C 510.089844 528.5 513.859375 525.742188 517.453125 522.738281 C 518.355469 522.097656 518.761719 521.578125 519.628906 520.859375 C 523.949219 517.203125 528.054688 513.316406 531.9375 509.195312 L 539.488281 500.855469 C 546.621094 492.414062 558.324219 475.855469 563.804688 465.375 C 564.464844 464.121094 564.394531 463.648438 565.425781 462.917969 Z M 565.414062 462.800781 " fill-opacity="1" fill-rule="evenodd"/><g clip-path="url(#171ee30b29)"><path fill="#13017c" d="M 186.507812 347.507812 L 161.207031 347.273438 L 161.207031 332.351562 L 189.472656 332.121094 C 189.765625 329.207031 190.269531 326.332031 190.976562 323.492188 C 195.261719 301.644531 194.796875 288.054688 209.039062 270.351562 C 219.460938 257.503906 237.222656 253.175781 253.410156 257.964844 C 255.953125 258.738281 258.402344 259.730469 260.765625 260.945312 L 267.65625 264.425781 L 289.515625 242.71875 C 287.453125 242.554688 283.863281 241.847656 281.953125 241.617188 C 256.585938 240.292969 233.9375 242.125 211.425781 255.75 C 186.277344 271 168.15625 298.757812 161.9375 327.375 C 160.59375 333.570312 161.402344 332.175781 158.464844 332.015625 L 123.726562 331.957031 C 121.792969 332.050781 121.917969 332.222656 121.894531 334.183594 L 121.953125 347.519531 L 158.09375 347.519531 C 158.09375 349.628906 155.671875 361.734375 155.152344 364.910156 C 154.203125 370.617188 153.136719 376.261719 152.046875 382.105469 C 147.785156 404.625 144.117188 429.136719 139.75 451.449219 C 138.59375 457.246094 137.667969 462.90625 136.695312 468.714844 C 135.722656 474.523438 134.597656 480.308594 133.53125 486.222656 C 128.011719 517.007812 124.488281 559.945312 89.394531 564.296875 C 75.140625 566.082031 65.851562 562.359375 54.054688 559.65625 L 49.675781 564.886719 C 48.183594 566.730469 46.550781 568.261719 45.046875 570.207031 L 37.136719 579.300781 C 36.140625 580.550781 35.769531 580.550781 35.632812 582.304688 C 53.9375 582.304688 72.359375 584.5625 89.890625 578.164062 C 91.339844 577.640625 92.660156 577.144531 94.164062 576.550781 C 103.113281 572.992188 109.496094 568.539062 116.8125 562.636719 L 122.878906 556.839844 C 124.6875 554.519531 128.125 551.042969 131.308594 546.808594 C 133.140625 544.410156 134.574219 542.042969 136.265625 539.550781 C 137.957031 537.058594 139.148438 534.785156 140.644531 532.117188 C 153.832031 508.484375 162.15625 476.355469 167.390625 449.953125 C 168.699219 443.425781 170.203125 436.175781 171.328125 429.488281 C 174.671875 409.285156 179.292969 388.148438 182.710938 368.101562 L 186.507812 347.496094 Z M 186.507812 347.507812 " fill-opacity="1" fill-rule="evenodd"/></g><g clip-path="url(#435426ae03)"><path fill="#fe4d11" d="M 186.507812 347.507812 L 767.941406 347.507812 L 774.21875 332.003906 L 667.597656 331.898438 L 662.410156 332.128906 C 657.871094 331.550781 427.066406 332.003906 425.546875 332.003906 L 203.839844 332.003906 C 199.648438 332.003906 192.472656 332.351562 189.449219 332.164062 L 161.207031 332.351562 L 161.207031 347.273438 Z M 186.507812 347.507812 " fill-opacity="1" fill-rule="evenodd"/></g><path fill="#fe4d11" d="M 671.292969 393.703125 C 676.027344 393.703125 681.15625 393.367188 684.839844 397.113281 C 691.117188 403.429688 687.15625 415.664062 685.765625 422.992188 C 684.792969 428.257812 683.925781 432.964844 682.871094 438.195312 L 674.269531 483.507812 C 672.613281 491.800781 666.164062 523.570312 666.164062 529.660156 C 666.164062 538.308594 666.765625 547.457031 672.867188 553.617188 C 678.96875 559.773438 683.472656 561.441406 692.714844 561.441406 C 705.300781 561.441406 720.132812 553.476562 729.917969 546.960938 L 751.558594 529.84375 C 752.078125 528.617188 751.753906 519.222656 751.753906 517.089844 C 750.03125 517.554688 748.398438 520.265625 746.265625 521.972656 C 739.445312 527.386719 737.109375 530.367188 728.066406 535.886719 C 722.855469 539.050781 711.03125 544.828125 705.820312 538.34375 C 700.992188 532.328125 703.367188 521.207031 704.746094 514.363281 L 735.878906 360.457031 C 734.0625 361.328125 730.878906 362.070312 728.65625 362.777344 C 716.84375 366.730469 703.691406 370.464844 691.9375 374.375 L 655.230469 386.039062 C 651.351562 387.199219 648.992188 387.464844 648.804688 389.515625 C 647.785156 400.542969 647.53125 399.417969 651.316406 398.316406 C 652.476562 397.96875 654.050781 397.621094 655.417969 397.238281 C 658.4375 396.371094 668.535156 393.585938 671.328125 393.585938 Z M 671.292969 393.703125 " fill-opacity="1" fill-rule="evenodd"/><path fill="#13017c" d="M 342.917969 424 C 342.917969 436.457031 346.773438 444.792969 354.09375 451.992188 L 375.074219 475.683594 C 378.546875 479.949219 381.71875 482.082031 384.871094 488.4375 C 392.128906 502.933594 388.585938 518.585938 371.195312 522.527344 C 367.109375 523.433594 364.351562 523.144531 360.253906 523.050781 C 354.464844 522.898438 346.542969 520.128906 341.285156 518.027344 C 333.101562 514.746094 331.917969 513.285156 325.226562 509.75 C 323.917969 511.699219 315.347656 520.011719 313.496094 522.03125 L 306.398438 529.683594 C 309.535156 531.351562 321.242188 534.820312 324.578125 535.480469 C 348.210938 540.476562 371.125 539.144531 391.042969 525.371094 C 395.671875 522.167969 401.808594 516.09375 404.671875 511.292969 C 406.539062 508.410156 408.019531 505.339844 409.117188 502.085938 C 409.621094 500.589844 410.027344 499.070312 410.339844 497.527344 C 410.652344 495.980469 410.867188 494.421875 410.984375 492.847656 C 411.101562 491.277344 411.121094 489.703125 411.039062 488.128906 C 410.957031 486.550781 410.777344 484.988281 410.5 483.4375 C 410.222656 481.882812 409.847656 480.355469 409.378906 478.851562 C 408.910156 477.34375 408.347656 475.875 407.691406 474.441406 C 407.035156 473.007812 406.296875 471.621094 405.464844 470.28125 C 404.636719 468.9375 403.726562 467.65625 402.738281 466.429688 L 378.5 436.769531 C 375.582031 433.070312 371.195312 428.511719 369.238281 424.582031 C 366.632812 419.339844 364.605469 414.738281 365.429688 407.351562 C 366.632812 395.605469 380.019531 388.9375 390.136719 388.9375 C 394.769531 388.9375 398.476562 388.808594 403.015625 390.457031 C 409.683594 392.855469 416.710938 398.167969 416.710938 406.296875 C 416.710938 412.324219 416.261719 410.933594 415.960938 414.414062 L 425.222656 414.414062 C 426.046875 412.730469 428.441406 401.65625 429.011719 399 L 432.597656 383.011719 C 429.125 382.210938 426.707031 380.402344 418.832031 379.046875 C 403.085938 376.355469 388.527344 377.574219 373.929688 384.125 C 368.695312 386.445312 361.851562 390.46875 357.808594 394.5625 L 354.476562 397.878906 C 348.035156 405.25 342.894531 412.949219 342.894531 424.023438 Z M 342.917969 424 " fill-opacity="1" fill-rule="evenodd"/><path fill="#13017c" d="M 212.6875 425.113281 C 212.722656 429.210938 213.382812 433.203125 214.667969 437.089844 C 215.957031 440.976562 217.808594 444.574219 220.226562 447.875 L 237.941406 467.820312 C 238.488281 468.5 239.082031 469.132812 239.726562 469.722656 L 248.769531 479.890625 C 252.683594 483.742188 258.449219 493.238281 258.449219 500.84375 C 258.449219 508.113281 256.480469 514.167969 251.269531 518.050781 C 237.503906 528.429688 217.457031 521.53125 203.945312 514.757812 C 202.40625 514.003906 201.226562 513.273438 199.660156 512.441406 C 198.285156 511.699219 196.800781 510.457031 195.34375 510.121094 L 181.113281 524.605469 C 179.203125 527.097656 176.976562 528.371094 176.539062 530.007812 C 177.941406 530.378906 179.3125 530.851562 180.648438 531.421875 C 182.140625 531.976562 183.671875 532.453125 185.058594 532.90625 C 208.914062 540.953125 240.523438 540.535156 260.707031 525.636719 C 266 521.703125 270.292969 517.902344 274 512.359375 C 283.957031 497.585938 283.261719 480.160156 272.449219 466.09375 L 241.578125 428.363281 C 240.3125 426.929688 239.332031 425.320312 238.636719 423.539062 C 236.484375 418.714844 235.222656 415.941406 235.222656 409.960938 C 235.222656 383.082031 286.875 381.296875 286.875 408.128906 C 286.875 410.804688 286.179688 412.175781 286.144531 414.390625 C 296.820312 414.390625 295.410156 415.234375 296.242188 411.222656 C 296.566406 409.738281 296.832031 408.488281 297.136719 407.304688 C 298.015625 403.734375 301.976562 384.9375 302.726562 383.371094 C 295.222656 379.394531 283.171875 377.828125 272.863281 377.828125 C 256.339844 377.828125 237.179688 385.308594 228.667969 393.808594 C 227.382812 395.058594 226.421875 395.605469 225.195312 396.925781 C 224.441406 397.738281 224.382812 397.96875 223.722656 398.78125 C 218.582031 404.859375 214.933594 410.378906 213.5 418.832031 C 213.113281 420.910156 212.867188 423.003906 212.757812 425.113281 Z M 212.6875 425.113281 " fill-opacity="1" fill-rule="evenodd"/><g clip-path="url(#5041eeff51)"><path fill="#267821" d="M 691.207031 318.714844 C 689.203125 321.683594 682.941406 324.953125 678.910156 326.332031 C 674.976562 327.640625 670.949219 328.542969 666.835938 329.035156 C 665.015625 329.152344 663.546875 329.417969 662.050781 329.417969 C 661.9375 330.351562 662.058594 331.257812 662.410156 332.128906 L 667.597656 331.898438 C 668.5 331.492188 680 331.144531 689.203125 324.464844 C 694.996094 320.246094 690.570312 321.625 697.308594 320.710938 C 699.464844 320.417969 700.539062 320.441406 702.542969 320.035156 C 733.195312 313.796875 745.25 273.816406 745.480469 245.535156 L 746.117188 234.371094 C 746.554688 231.34375 746.230469 225.941406 746.230469 222.65625 L 745.480469 222.65625 C 745.085938 227.539062 735.996094 241.304688 732.949219 245.558594 C 713.949219 266.835938 684.527344 287.71875 691.265625 318.714844 Z M 691.207031 318.714844 " fill-opacity="1" fill-rule="evenodd"/></g><path fill="#6f2801" d="M 670.96875 294.46875 C 671.859375 294.46875 672.746094 294.554688 673.621094 294.730469 C 674.496094 294.90625 675.347656 295.164062 676.171875 295.503906 C 676.996094 295.847656 677.78125 296.265625 678.523438 296.765625 C 679.265625 297.261719 679.949219 297.824219 680.582031 298.457031 C 681.210938 299.089844 681.777344 299.777344 682.273438 300.519531 C 682.769531 301.265625 683.1875 302.050781 683.527344 302.875 C 683.871094 303.699219 684.128906 304.550781 684.300781 305.429688 C 684.476562 306.304688 684.5625 307.191406 684.5625 308.085938 C 684.5625 308.980469 684.472656 309.863281 684.300781 310.742188 C 684.125 311.617188 683.867188 312.46875 683.523438 313.296875 C 683.183594 314.121094 682.765625 314.90625 682.269531 315.648438 C 681.773438 316.390625 681.207031 317.078125 680.574219 317.710938 C 679.945312 318.34375 679.257812 318.90625 678.515625 319.402344 C 677.773438 319.902344 676.988281 320.320312 676.164062 320.660156 C 675.339844 321.003906 674.488281 321.261719 673.613281 321.433594 C 672.738281 321.609375 671.851562 321.695312 670.960938 321.695312 C 670.066406 321.695312 669.183594 321.605469 668.308594 321.433594 C 667.433594 321.257812 666.582031 320.996094 665.757812 320.65625 C 664.933594 320.3125 664.148438 319.894531 663.40625 319.394531 C 662.664062 318.898438 661.980469 318.332031 661.347656 317.699219 C 660.71875 317.066406 660.15625 316.378906 659.660156 315.636719 C 659.164062 314.894531 658.746094 314.109375 658.40625 313.28125 C 658.0625 312.457031 657.804688 311.605469 657.632812 310.726562 C 657.460938 309.851562 657.375 308.964844 657.375 308.070312 C 657.375 307.175781 657.464844 306.292969 657.640625 305.417969 C 657.8125 304.542969 658.074219 303.691406 658.414062 302.867188 C 658.757812 302.042969 659.175781 301.257812 659.671875 300.515625 C 660.167969 299.773438 660.730469 299.085938 661.363281 298.457031 C 661.992188 297.824219 662.679688 297.261719 663.421875 296.765625 C 664.164062 296.269531 664.945312 295.847656 665.769531 295.507812 C 666.59375 295.164062 667.445312 294.90625 668.316406 294.730469 C 669.191406 294.558594 670.074219 294.46875 670.96875 294.46875 Z M 670.96875 294.46875 " fill-opacity="1" fill-rule="evenodd"/><g clip-path="url(#56ea296325)"><path fill="#267821" d="M 723.941406 572.828125 L 716.519531 587.683594 L 35.46875 587.683594 L 35.46875 584.898438 C 70.914062 587.347656 94.257812 582.582031 109.367188 572.863281 L 723.941406 572.863281 Z M 723.941406 572.828125 " fill-opacity="1" fill-rule="evenodd"/></g></svg>