<svg width="19" height="17" viewBox="0 0 19 17" fill="none" xmlns="http://www.w3.org/2000/svg">
<path fill-rule="evenodd" clip-rule="evenodd" d="M9.38145 4.64966C8.91379 4.60453 8.10706 4.56449 7.33214 4.65421C6.55721 4.74393 5.81414 4.96342 5.21276 5.30531C4.61139 5.6472 4.15178 6.11147 3.88839 6.56184C3.625 7.01222 3.55785 7.44867 3.53461 7.8939C3.51138 8.33913 3.53206 8.79311 3.72063 9.47191C3.90921 10.1507 4.26566 11.0543 4.78867 11.9106C5.31169 12.7669 6.00121 13.5759 6.67475 14.1305C7.3483 14.6852 8.00582 14.9855 8.63936 15.2177C9.27291 15.45 9.88245 15.6142 10.7416 15.6731C11.6008 15.7319 12.7095 15.6854 13.58 15.5474C14.4504 15.4095 15.0825 15.1802 15.7232 14.7749C16.364 14.3696 17.0133 13.7883 17.4699 13.2759C17.9265 12.7635 18.1903 12.32 18.345 12.0217C18.4997 11.7233 18.5453 11.5701 18.4291 11.4158C18.313 11.2615 18.0351 11.1061 17.78 10.9981C17.5248 10.8901 17.2924 10.8295 17.2862 10.8573C17.2801 10.8851 17.5003 11.0012 17.6807 11.1119C17.8611 11.2226 18.0018 11.3278 17.9997 11.4208C17.9977 11.5139 17.853 11.5949 17.4935 11.7076C17.1339 11.8204 16.5596 11.965 15.3621 12.0422C14.1645 12.1195 12.3439 12.1295 10.959 12.0481C9.57409 11.9668 8.625 11.794 7.8601 11.6044C7.0952 11.4147 6.51454 11.2081 6.23996 11.0422C5.96538 10.8764 5.99692 10.7512 6.30382 10.6162C6.61072 10.4812 7.19293 10.3364 7.83325 10.2377C8.47358 10.139 9.17197 10.0865 9.73859 10.0696C10.3052 10.0528 10.74 10.0717 11.2861 10.1039C11.8321 10.136 12.4894 10.1814 13.2089 10.2762C13.9284 10.3711 14.7102 10.5154 15.2542 10.6406C15.7982 10.7658 16.1045 10.872 16.0553 10.8428C16.0062 10.8135 15.6016 10.6488 15.1953 10.5187C14.7889 10.3885 14.3808 10.2929 13.8783 10.2006C13.3757 10.1084 12.7788 10.0195 11.893 9.97537C11.0071 9.93126 9.83242 9.93193 8.86195 9.98387C7.89149 10.0358 7.12532 10.139 6.55957 10.1696C5.99381 10.2001 5.62849 10.1581 5.29669 9.95981C4.96489 9.76155 4.66664 9.40706 4.49778 8.97904C4.32892 8.55101 4.28948 8.04948 4.3103 7.62845C4.33111 7.20742 4.41219 6.86693 4.53804 6.54894C4.6639 6.23094 4.83453 5.93548 5.11921 5.69793C5.40388 5.46037 5.80256 5.28076 6.10923 5.14233C6.4159 5.0039 6.63054 4.90666 7.23853 4.83894C7.84653 4.77121 8.84782 4.733 9.32704 4.70553C9.80626 4.67806 9.8491 4.69479 9.38145 4.64966Z" fill="#416D19"/>
<path fill-rule="evenodd" clip-rule="evenodd" d="M6.08113 5.33011C6.17989 5.4944 6.39423 5.78641 7.08548 5.99464C7.77672 6.20288 8.94472 6.32732 9.80538 6.35538C10.666 6.38345 11.2191 6.31513 11.666 6.23461C12.1128 6.15408 12.4533 6.06137 13.0582 5.94831C13.6631 5.83526 14.5325 5.70189 15.1655 5.71547C15.7985 5.72905 16.1953 5.88957 16.404 6.01831C16.6127 6.14704 16.6333 6.24398 16.624 6.22019C16.6147 6.1964 16.5753 6.0519 16.3799 5.89943C16.1844 5.74696 15.8327 5.58653 15.4472 5.46198C15.0617 5.33743 14.6423 5.24877 14.0328 5.04177C13.4232 4.83477 12.6234 4.50945 12.01 4.2409C11.3965 3.97235 10.9692 3.76058 10.3672 3.60234C9.76525 3.4441 8.98851 3.33942 8.35031 3.32888C7.7121 3.31834 7.21247 3.40195 6.82619 3.56259C6.4399 3.72323 6.16699 3.96089 6.00254 4.22441C5.83809 4.48794 5.78211 4.7773 5.83668 4.87176C5.89126 4.96622 6.05637 4.8658 6.41182 4.77182C6.76727 4.67785 7.313 4.59033 7.80787 4.53333C8.30275 4.47632 8.74671 4.44982 9.05798 4.44926C9.36926 4.4487 9.54783 4.47407 9.42669 4.49209C9.30555 4.5101 8.88472 4.52076 8.53377 4.54619C8.18282 4.57162 7.90178 4.61184 7.55928 4.67355C7.21678 4.73526 6.81285 4.81847 6.54541 4.89192C6.27797 4.96537 6.14703 5.02907 6.07313 5.07918C5.99922 5.1293 5.98236 5.16583 6.08113 5.33011Z" fill="#416D19"/>
<path fill-rule="evenodd" clip-rule="evenodd" d="M5.23189 4.96453C5.1237 4.99289 4.9167 5.03011 4.56499 4.87376C4.21328 4.71742 3.71692 4.36755 3.37858 4.08577C3.04024 3.80399 2.85999 3.59037 2.72527 3.40823C2.59056 3.2261 2.50142 3.07551 2.32079 2.82742C2.14015 2.57934 1.86804 2.23378 1.62222 2.02386C1.3764 1.81394 1.15688 1.73966 1.02233 1.71728C0.887779 1.69489 0.838193 1.72439 0.851972 1.71859C0.865752 1.7128 0.942894 1.67171 1.08266 1.68067C1.22243 1.68962 1.42481 1.74862 1.62459 1.83265C1.82436 1.91667 2.02152 2.02572 2.34173 2.15478C2.66195 2.28385 3.10521 2.43294 3.45342 2.54014C3.80164 2.64735 4.05478 2.71268 4.35113 2.85754C4.64748 3.00241 4.987 3.22682 5.23347 3.43964C5.47995 3.65246 5.63334 3.85368 5.7106 4.04543C5.78786 4.23718 5.78897 4.41943 5.75956 4.56034C5.73015 4.70126 5.67022 4.80081 5.61131 4.81318C5.5524 4.82555 5.49451 4.75075 5.386 4.60299C5.27748 4.45523 5.11834 4.23451 4.95284 4.04961C4.78733 3.86471 4.61547 3.71564 4.49023 3.61555C4.36498 3.51546 4.28636 3.46437 4.32453 3.5123C4.36269 3.56024 4.51763 3.70721 4.63972 3.83601C4.7618 3.9648 4.85102 4.07542 4.95429 4.21502C5.05755 4.35462 5.17483 4.52318 5.24459 4.64171C5.31434 4.76023 5.33654 4.82871 5.34298 4.8727C5.34941 4.91669 5.34007 4.93618 5.23189 4.96453Z" fill="#416D19"/>
<path fill-rule="evenodd" clip-rule="evenodd" d="M12.2213 9.77721C12.549 9.79335 13.2378 9.85247 13.8107 9.92629C14.3836 10.0001 14.8405 10.0886 15.3265 10.1971C15.8124 10.3056 16.3273 10.434 16.5255 10.5004C16.7236 10.5667 16.6051 10.571 16.3968 10.5331C16.1885 10.4951 15.8905 10.4148 15.4931 10.3294C15.0957 10.244 14.599 10.1534 14.1071 10.0749C13.6151 9.9964 13.1278 9.92999 12.7708 9.88863C12.4138 9.84727 12.187 9.83097 12.057 9.80942C11.9269 9.78787 11.8936 9.76107 12.2213 9.77721Z" fill="#416D19"/>
<path fill-rule="evenodd" clip-rule="evenodd" d="M13.1287 6.96965C13.2699 7.21255 13.322 7.56114 13.3583 7.87049C13.3946 8.17985 13.4151 8.44997 13.419 8.64983C13.4229 8.84969 13.41 8.97928 13.5063 9.08062C13.6025 9.18195 13.8077 9.25503 14.0188 9.22887C14.2299 9.2027 14.4468 9.0773 14.5444 8.88636C14.6419 8.69543 14.62 8.43895 14.5536 8.19574C14.4871 7.95254 14.3761 7.72262 14.1543 7.45887C13.9326 7.19513 13.6 6.89757 13.3103 6.72417C13.0206 6.55077 12.7737 6.50154 12.7654 6.54554C12.7571 6.58954 12.9875 6.72675 13.1287 6.96965Z" fill="#416D19"/>
<path fill-rule="evenodd" clip-rule="evenodd" d="M14.2219 8.99307C14.3153 8.92853 14.3932 8.8073 14.4637 8.64379C14.5342 8.48028 14.494 8.2782 14.4422 8.13473C14.3904 7.99127 14.3269 7.90643 14.3154 7.90698C14.3038 7.90755 14.3442 7.99346 14.3531 8.02108C14.3621 8.04869 14.3396 8.01799 14.3408 8.05549C14.342 8.09299 14.3668 8.19869 14.3565 8.24741C14.3462 8.29613 14.3006 8.28786 14.2824 8.32791C14.2643 8.36797 14.2735 8.45634 14.2574 8.52801C14.2412 8.59969 14.1996 8.65468 14.2036 8.67554C14.2077 8.6964 14.2573 8.68314 14.2419 8.71432C14.2265 8.7455 14.1994 8.77832 14.1749 8.81659C14.1505 8.85485 14.2061 8.87765 14.1997 8.89331C14.1934 8.90898 14.1359 8.97454 14.1131 9.00094C14.0904 9.02735 14.0184 9.04331 14.0138 9.0696C14.0195 9.06546 14.1285 9.0576 14.2219 8.99307Z" fill="#588329"/>
<path fill-rule="evenodd" clip-rule="evenodd" d="M12.4534 12.3234C12.5134 12.2299 13.7694 12.2767 14.7626 12.2459C15.7558 12.2151 16.4861 12.1066 16.9204 12.0294C17.3547 11.9521 17.4929 11.906 17.6168 11.881C17.7408 11.8559 17.8503 11.852 17.7693 12.0607C17.6883 12.2694 17.4168 12.6906 17.0205 13.1232C16.6242 13.5558 16.1032 13.9997 15.6531 14.3245C15.203 14.6492 14.8238 14.8549 14.4894 15.0113C14.155 15.1677 13.8654 15.2749 13.478 15.3372C13.0906 15.3995 12.6055 15.4169 12.4068 15.4052C12.208 15.3934 12.2956 15.3526 12.4572 15.3039C12.6189 15.2552 12.8545 15.1988 13.1966 15.0888C13.5386 14.9788 13.9871 14.8153 14.2163 14.6888C14.4456 14.5623 14.4557 14.4727 14.1543 14.4509C13.853 14.4291 13.2403 14.4751 12.8785 14.4572C12.5166 14.4393 12.4056 14.3575 12.5535 14.3093C12.7015 14.2612 13.1083 14.2466 13.5561 14.1345C14.0039 14.0225 14.4926 13.8129 14.3126 13.6633C14.1327 13.5137 13.2841 13.4241 12.6638 13.2868C12.0434 13.1496 11.6515 12.9647 11.6737 12.9124C11.6959 12.8602 12.1323 12.9406 12.6999 12.958C13.2676 12.9754 13.9666 12.9298 13.748 12.7902C13.5295 12.6505 12.3934 12.4168 12.4534 12.3234Z" fill="#578228"/>
<path fill-rule="evenodd" clip-rule="evenodd" d="M5.49925 5.15601C5.47038 5.06219 5.41246 4.87401 5.40939 4.7927C5.40632 4.71139 5.45799 4.73671 5.5308 4.81538C5.60361 4.89405 5.69756 5.02605 5.73392 5.10496C5.77028 5.18387 5.74906 5.20969 5.71318 5.22442C5.67731 5.23915 5.62678 5.24277 5.59349 5.24516C5.5602 5.24754 5.54416 5.24869 5.53614 5.24926C5.52812 5.24983 5.52812 5.24983 5.49925 5.15601Z" fill="#416D19"/>
</svg>
